<svg width="55" height="80" viewBox="0 0 55 80" fill="none" xmlns="http://www.w3.org/2000/svg">
<rect x="1" y="1" width="53" height="78" rx="3" stroke="white" stroke-width="2"/>
<path d="M12 27H42" stroke="white" stroke-linecap="round"/>
<path d="M12 36H42" stroke="white" stroke-linecap="round"/>
<path d="M12 46H42" stroke="white" stroke-linecap="round"/>
<path d="M12 56H42" stroke="white" stroke-linecap="round"/>
<path d="M12 66H42" stroke="white" stroke-linecap="round"/>
<path d="M22.4 18.12C21.752 18.12 21.144 18 20.576 17.76C20.016 17.512 19.524 17.172 19.1 16.74C18.684 16.3 18.356 15.788 18.116 15.204C17.884 14.62 17.768 13.988 17.768 13.308C17.768 12.636 17.884 12.012 18.116 11.436C18.356 10.852 18.684 10.344 19.1 9.912C19.524 9.472 20.016 9.128 20.576 8.88C21.136 8.632 21.744 8.508 22.4 8.508C23.016 8.508 23.544 8.588 23.984 8.748C24.432 8.908 24.88 9.172 25.328 9.54C25.424 9.62 25.488 9.696 25.52 9.768C25.552 9.84 25.568 9.928 25.568 10.032C25.568 10.184 25.512 10.312 25.4 10.416C25.296 10.512 25.168 10.568 25.016 10.584C24.864 10.592 24.716 10.54 24.572 10.428C24.276 10.172 23.968 9.976 23.648 9.84C23.336 9.704 22.92 9.636 22.4 9.636C21.928 9.636 21.484 9.732 21.068 9.924C20.652 10.116 20.284 10.38 19.964 10.716C19.652 11.052 19.408 11.444 19.232 11.892C19.056 12.332 18.968 12.804 18.968 13.308C18.968 13.82 19.056 14.3 19.232 14.748C19.408 15.188 19.652 15.576 19.964 15.912C20.284 16.248 20.652 16.512 21.068 16.704C21.484 16.888 21.928 16.98 22.4 16.98C22.808 16.98 23.192 16.912 23.552 16.776C23.92 16.632 24.272 16.436 24.608 16.188C24.752 16.084 24.892 16.04 25.028 16.056C25.172 16.064 25.292 16.12 25.388 16.224C25.484 16.32 25.532 16.456 25.532 16.632C25.532 16.8 25.468 16.948 25.34 17.076C24.476 17.772 23.496 18.12 22.4 18.12ZM27.7561 18.192C27.5321 18.192 27.3361 18.112 27.1681 17.952C27.0081 17.784 26.9281 17.588 26.9281 17.364C26.9281 17.132 27.0081 16.936 27.1681 16.776C27.3361 16.608 27.5321 16.524 27.7561 16.524C27.9881 16.524 28.1841 16.608 28.3441 16.776C28.5041 16.936 28.5841 17.132 28.5841 17.364C28.5841 17.588 28.5041 17.784 28.3441 17.952C28.1841 18.112 27.9881 18.192 27.7561 18.192ZM30.9995 18C30.8235 18 30.6755 17.94 30.5555 17.82C30.4435 17.7 30.3875 17.552 30.3875 17.376V9.252C30.3875 9.076 30.4475 8.928 30.5675 8.808C30.6875 8.688 30.8315 8.628 30.9995 8.628C31.1755 8.628 31.3235 8.688 31.4435 8.808C31.5635 8.928 31.6235 9.076 31.6235 9.252V16.752H35.9675C36.1435 16.752 36.2915 16.812 36.4115 16.932C36.5315 17.052 36.5915 17.2 36.5915 17.376C36.5915 17.552 36.5315 17.7 36.4115 17.82C36.2915 17.94 36.1435 18 35.9675 18H30.9995Z" fill="white"/>
</svg>
