<svg width="55" height="80" viewBox="0 0 55 80" fill="none" xmlns="http://www.w3.org/2000/svg">
<rect x="1" y="1" width="53" height="78" rx="3" stroke="white" stroke-width="2"/>
<path d="M21.4 18.12C20.752 18.12 20.144 18 19.576 17.76C19.016 17.512 18.524 17.172 18.1 16.74C17.684 16.3 17.356 15.788 17.116 15.204C16.884 14.62 16.768 13.988 16.768 13.308C16.768 12.636 16.884 12.012 17.116 11.436C17.356 10.852 17.684 10.344 18.1 9.912C18.524 9.472 19.016 9.128 19.576 8.88C20.136 8.632 20.744 8.508 21.4 8.508C22.016 8.508 22.544 8.588 22.984 8.748C23.432 8.908 23.88 9.172 24.328 9.54C24.424 9.62 24.488 9.696 24.52 9.768C24.552 9.84 24.568 9.928 24.568 10.032C24.568 10.184 24.512 10.312 24.4 10.416C24.296 10.512 24.168 10.568 24.016 10.584C23.864 10.592 23.716 10.54 23.572 10.428C23.276 10.172 22.968 9.976 22.648 9.84C22.336 9.704 21.92 9.636 21.4 9.636C20.928 9.636 20.484 9.732 20.068 9.924C19.652 10.116 19.284 10.38 18.964 10.716C18.652 11.052 18.408 11.444 18.232 11.892C18.056 12.332 17.968 12.804 17.968 13.308C17.968 13.82 18.056 14.3 18.232 14.748C18.408 15.188 18.652 15.576 18.964 15.912C19.284 16.248 19.652 16.512 20.068 16.704C20.484 16.888 20.928 16.98 21.4 16.98C21.808 16.98 22.192 16.912 22.552 16.776C22.92 16.632 23.272 16.436 23.608 16.188C23.752 16.084 23.892 16.04 24.028 16.056C24.172 16.064 24.292 16.12 24.388 16.224C24.484 16.32 24.532 16.456 24.532 16.632C24.532 16.8 24.468 16.948 24.34 17.076C23.476 17.772 22.496 18.12 21.4 18.12ZM26.7561 18.192C26.5321 18.192 26.3361 18.112 26.1681 17.952C26.0081 17.784 25.9281 17.588 25.9281 17.364C25.9281 17.132 26.0081 16.936 26.1681 16.776C26.3361 16.608 26.5321 16.524 26.7561 16.524C26.9881 16.524 27.1841 16.608 27.3441 16.776C27.5041 16.936 27.5841 17.132 27.5841 17.364C27.5841 17.588 27.5041 17.784 27.3441 17.952C27.1841 18.112 26.9881 18.192 26.7561 18.192ZM32.6035 18C32.3475 18 32.1595 17.868 32.0395 17.604L28.5235 9.564C28.4115 9.292 28.3995 9.068 28.4875 8.892C28.5755 8.716 28.7435 8.628 28.9915 8.628C29.2715 8.628 29.4635 8.752 29.5675 9L32.5915 16.248L35.6635 9C35.7275 8.856 35.7995 8.76 35.8795 8.712C35.9675 8.656 36.0835 8.628 36.2275 8.628C36.4675 8.628 36.6315 8.716 36.7195 8.892C36.8155 9.06 36.8155 9.248 36.7195 9.456L33.1675 17.604C33.0635 17.868 32.8755 18 32.6035 18ZM36.5413 18.192C36.3173 18.192 36.1213 18.112 35.9533 17.952C35.7933 17.784 35.7133 17.588 35.7133 17.364C35.7133 17.132 35.7933 16.936 35.9533 16.776C36.1213 16.608 36.3173 16.524 36.5413 16.524C36.7733 16.524 36.9693 16.608 37.1293 16.776C37.2893 16.936 37.3693 17.132 37.3693 17.364C37.3693 17.588 37.2893 17.784 37.1293 17.952C36.9693 18.112 36.7733 18.192 36.5413 18.192Z" fill="white"/>
<path d="M25 23V66" stroke="white" stroke-width="2" stroke-linecap="round"/>
<path d="M32 28H46" stroke="white" stroke-linecap="round"/>
<path d="M32 33H46" stroke="white" stroke-linecap="round"/>
<path d="M32 38H46" stroke="white" stroke-linecap="round"/>
<path d="M32 50H46" stroke="white" stroke-linecap="round"/>
<path d="M32 55H46" stroke="white" stroke-linecap="round"/>
<path d="M8 41H22" stroke="white" stroke-linecap="round"/>
<path d="M8 46H22" stroke="white" stroke-linecap="round"/>
<path d="M32 60H46" stroke="white" stroke-linecap="round"/>
<rect x="9.5" y="25.5" width="11" height="8" rx="0.5" stroke="white"/>
</svg>
