<svg width="65" height="94" viewBox="0 0 65 94" fill="none" xmlns="http://www.w3.org/2000/svg">
<rect x="11" y="15" width="53" height="78" rx="3" stroke="white" stroke-width="2"/>
<path d="M31.4 32.12C30.752 32.12 30.144 32 29.576 31.76C29.016 31.512 28.524 31.172 28.1 30.74C27.684 30.3 27.356 29.788 27.116 29.204C26.884 28.62 26.768 27.988 26.768 27.308C26.768 26.636 26.884 26.012 27.116 25.436C27.356 24.852 27.684 24.344 28.1 23.912C28.524 23.472 29.016 23.128 29.576 22.88C30.136 22.632 30.744 22.508 31.4 22.508C32.016 22.508 32.544 22.588 32.984 22.748C33.432 22.908 33.88 23.172 34.328 23.54C34.424 23.62 34.488 23.696 34.52 23.768C34.552 23.84 34.568 23.928 34.568 24.032C34.568 24.184 34.512 24.312 34.4 24.416C34.296 24.512 34.168 24.568 34.016 24.584C33.864 24.592 33.716 24.54 33.572 24.428C33.276 24.172 32.968 23.976 32.648 23.84C32.336 23.704 31.92 23.636 31.4 23.636C30.928 23.636 30.484 23.732 30.068 23.924C29.652 24.116 29.284 24.38 28.964 24.716C28.652 25.052 28.408 25.444 28.232 25.892C28.056 26.332 27.968 26.804 27.968 27.308C27.968 27.82 28.056 28.3 28.232 28.748C28.408 29.188 28.652 29.576 28.964 29.912C29.284 30.248 29.652 30.512 30.068 30.704C30.484 30.888 30.928 30.98 31.4 30.98C31.808 30.98 32.192 30.912 32.552 30.776C32.92 30.632 33.272 30.436 33.608 30.188C33.752 30.084 33.892 30.04 34.028 30.056C34.172 30.064 34.292 30.12 34.388 30.224C34.484 30.32 34.532 30.456 34.532 30.632C34.532 30.8 34.468 30.948 34.34 31.076C33.476 31.772 32.496 32.12 31.4 32.12ZM36.7561 32.192C36.5321 32.192 36.3361 32.112 36.1681 31.952C36.0081 31.784 35.9281 31.588 35.9281 31.364C35.9281 31.132 36.0081 30.936 36.1681 30.776C36.3361 30.608 36.5321 30.524 36.7561 30.524C36.9881 30.524 37.1841 30.608 37.3441 30.776C37.5041 30.936 37.5841 31.132 37.5841 31.364C37.5841 31.588 37.5041 31.784 37.3441 31.952C37.1841 32.112 36.9881 32.192 36.7561 32.192ZM42.6035 32C42.3475 32 42.1595 31.868 42.0395 31.604L38.5235 23.564C38.4115 23.292 38.3995 23.068 38.4875 22.892C38.5755 22.716 38.7435 22.628 38.9915 22.628C39.2715 22.628 39.4635 22.752 39.5675 23L42.5915 30.248L45.6635 23C45.7275 22.856 45.7995 22.76 45.8795 22.712C45.9675 22.656 46.0835 22.628 46.2275 22.628C46.4675 22.628 46.6315 22.716 46.7195 22.892C46.8155 23.06 46.8155 23.248 46.7195 23.456L43.1675 31.604C43.0635 31.868 42.8755 32 42.6035 32ZM46.5413 32.192C46.3173 32.192 46.1213 32.112 45.9533 31.952C45.7933 31.784 45.7133 31.588 45.7133 31.364C45.7133 31.132 45.7933 30.936 45.9533 30.776C46.1213 30.608 46.3173 30.524 46.5413 30.524C46.7733 30.524 46.9693 30.608 47.1293 30.776C47.2893 30.936 47.3693 31.132 47.3693 31.364C47.3693 31.588 47.2893 31.784 47.1293 31.952C46.9693 32.112 46.7733 32.192 46.5413 32.192Z" fill="white"/>
<path d="M35 37V80" stroke="white" stroke-width="2" stroke-linecap="round"/>
<path d="M42 42H56" stroke="white" stroke-linecap="round"/>
<path d="M42 47H56" stroke="white" stroke-linecap="round"/>
<path d="M42 52H56" stroke="white" stroke-linecap="round"/>
<path d="M42 64H56" stroke="white" stroke-linecap="round"/>
<path d="M42 69H56" stroke="white" stroke-linecap="round"/>
<path d="M18 55H32" stroke="white" stroke-linecap="round"/>
<path d="M18 60H32" stroke="white" stroke-linecap="round"/>
<path d="M42 74H56" stroke="white" stroke-linecap="round"/>
<rect x="19.5" y="39.5" width="11" height="8" rx="0.5" stroke="white"/>
<path fill-rule="evenodd" clip-rule="evenodd" d="M51 2H4C2.89543 2 2 2.89543 2 4V76C2 77.1046 2.89543 78 4 78H9V80H4C1.79086 80 0 78.2091 0 76V4C0 1.79086 1.79086 0 4 0H51C53.2091 0 55 1.79086 55 4V14H53V4C53 2.89543 52.1046 2 51 2Z" fill="#C4C4C4"/>
</svg>
